
<svg xmlns="http://www.w3.org/2000/svg" viewBox="0 0 512 512" fill="#D4AF37">
  <path d="M479.97 32.98c-1.99-.3-4.08-.6-6.17-.6-17.47 0-32.96 9.28-41.35 23.2l-57.6 94.6c-5.51-15.66-11.63-31-10.37-46.55 1.57-19.43 19.52-34.77 36.08-45.55 4.08-2.68 8.47-5.37 11.85-8.96 2-2.09 3.48-7.78 1.4-10.47-2-2.68-7.88-3.18-11.06-1.9-8.77 3.6-15.16 10.87-22.24 16.86-14.96 12.58-31.04 23.96-45.3 37.3-8.8 8.26-16.96 17.12-23.55 27-12.26-7.78-24.92-15.36-37.97-21.84-9.58-4.6-20.44-7.68-31.3-7.68-7.58 0-19.44 2.3-24.25 8.36-3.48 4.2-2.6 10.37 1.99 13.46 6.97 4.68 15.85 5.18 23.84 5.58 9.58 0 19.45-.5 28.44 2.3 8.77 2.78 16.76 8.16 23.84 13.96-10.87 18.24-26.32 33.1-38.38 50.55-11.36 16.56-22.24 33.7-33.11 50.56-8.77-18.14-17.05-36.68-26.12-54.84-7.5-14.98-15.07-30.35-21.94-45.84-5.01-11.36-9.88-23.16-10.47-35.53-.1-2.49.4-5.18 2-7.18 1.2-1.5 2.98-2.69 4.88-2.2 3.48 1 4.78 4.88 5.57 7.97 1.8 6.97 1.8 14.25 2.4 21.34.3 3.88.5 8.26 2.88 11.55 3.88 5.18 11.75 2.59 17.04 1.5 9.77-2.3 19.94-2.8 29.92-1.6 9.77 1.2 19.04 5 28.03 8.77 7.48 3.1 14.96 6.48 22.34 10.07-3.68 4.69-7.37 9.68-10.66 14.56-6.57 9.88-12.75 19.84-18.53 30.12-11.35 20.34-21.43 41.18-32.2 61.73-6.47 12.36-12.95 24.72-19.93 36.78-6.07 10.67-13.35 21.54-17.84 33.11-3.49 8.96-5.87 20-1.1 28.83 2.6 4.88 7.59 8.07 12.96 9.48 0 .2.2.3.3.5 6.97-4.29 13.95-8.77 20.64-13.56 7.77-5.47 15.75-10.95 23.13-17.04 5.48-4.58 10.37-9.48 15.85-14.15 8.66-7.49 17.63-14.66 26.52-21.84 17.53-14.17 35.17-28.33 52.7-42.49 2.3-1.79 4.5-3.68 6.87-5.27 2.2-1.5 5.38-2.9 6.67-5.38.2-.4.4-.7.6-1 1.8-6.87 6.28-12.94 11.06-18.24 5.28-5.87 11.25-11.35 17.74-16.04 7.38-5.18 14.96-9.78 22.74-14.46l43.8 71.92c-2.3.9-4.6 1.7-6.9 2.6-23.53 9.07-47.07 18.03-70.6 27.1-25.24 9.78-50.36 19.45-75.59 29.33-8.27 3.28-16.76 6.57-24.73 10.36-6.37 2.99-12.45 6.97-15.95 13.25-1.6 2.9-2.3 7.18 1.2 9.28 3.78 2.19 8.26 1.6 12.36.4 4.68-1.4 9.37-3.3 14.05-4.99 37.5-13.95 75.1-27.6 112.6-41.54 22.04-8.17 44.08-16.54 66.12-24.82 2.3-.8 4.6-1.7 7-2.4-3.6 7-7.2 13.86-10.77 20.74-13.46 25.92-26.72 51.95-40.18 77.88-7.97 15.36-15.85 30.72-23.82 46.07-4.09 7.87-8.27 15.65-12.26 23.52-3.89 7.68-8.68 16.25-9.48 25.02-.3 3.88.7 8.26 4.09 10.36 4.68 2.9 10.36.5 14.05-2.9 4.29-3.97 7.18-9.36 10.17-14.55 5.97-10.57 11.55-21.33 17.43-31.9 12.75-23.03 25.62-45.95 38.27-68.98 18.54-33.4 36.98-66.81 55.51-100.21 1.7-2.99 3.4-5.97 5.08-8.96l28.04 46.06c5.68 9.48 11.85 19.25 21.84 24.33 4.08 2.1 8.76 3.1 13.35 1.9 5.87-1.5 11.05-5.29 15.16-9.77 3.88-4.3 6.97-9.58 8.96-15.06 2.4-6.57 3.59-13.65 5.48-20.33 2.3-8.27 4.7-16.36 7-24.53 6.67-23.53 13.25-47.06 19.84-70.5 1.1-3.78 2.2-7.67 3.29-11.45l-60.9-100.22c6.77-3.78 13.56-7.67 20.34-11.45 6.47-3.68 13.25-6.97 20.53-7.97 4.09-.7 8.67-.2 11.65 2.9 1.5 1.5 2.2 3.68 2.4 5.68.7 5.48-1.6 10.76-3.59 15.75-2.2 5.18-4.88 10.27-7.78 15.06-1.7 2.99-3.59 5.87-5.18 8.96-1.2 2.1-2 4.39-2.3 6.77-.2 1.3-.1 2.7.6 3.9.6 1.39 2.1 2.29 3.6 2.19 5.17-.1 8.96-4.59 11.65-8.47 4.28-6.38 7.67-13.25 11.45-19.95 5.97-10.76 12.16-21.93 13.76-34.28.2-1.6.3-3.19.3-4.88 0-6.58-1.3-13.46-5.68-18.44-5.98-6.88-15.75-9.88-24.53-9.38-11.65.7-22.83 5.38-33.2 10.37-4.88 2.3-9.68 4.88-14.46 7.48-9.38-15.16-18.44-30.53-27.63-45.7-5.87-9.57-11.95-19.04-16.55-29.31-4.88-10.77-8.06-22.74-6.17-34.49 1.8-10.86 8.07-20.23 16.55-27.1 5.48-4.3 11.75-7.89 18.34-10.17 4.08-1.4 8.26-2.3 12.35-3 2.2-.4 4.39-.9 6.58-1.6 1.8-.5 3.48-1.2 4.88-2.69 1.5-1.4 2-4.88-.1-5.77zm-155.33 102c-7.18-3.3-14.66-5.88-22.54-6.67-5.77-.6-12.35-.6-18.14 0-5.57.5-11.35 1.3-15.84 4.58-1.5 1-4.39 3.69-2.99 5.88 1.4 2.2 4.28 2.4 6.67 2.6 5.08.3 10.37-.2 15.36.7 5.87.9 11.35 3.59 16.55 6.47 2.59 1.4 5.08 2.99 7.67 4.69-1.6 2.39-3.29 4.78-4.88 7.28-11.06 16.74-20.74 34.38-30.93 51.73-3.19-6.68-6.38-13.36-9.47-20.04 14.55-24.42 36.28-45.35 59.54-57.22zM151.2 299.94c-7.18 4.49-14.36 8.97-21.44 13.95-8.56 6.08-17.23 12.46-26.1 17.94-4.3 2.6-8.68 5.28-13.07 7.68-2.2 1.3-4.39 2.4-6.67 3.59-1.5.7-3.19 1.4-4.69 1.1-1-.1-1.5-.4-2.4-1-2.59-1.8-4.28-5.38-4.58-8.57-.3-3.29.5-6.58 1.5-9.67 3.28-8.47 8.86-16.04 14.15-23.23 12.95-17.34 26.42-34.28 40.08-51.13 11.45-14.26 23.13-28.33 33.9-43.19 6.67-9.18 13.24-18.64 18.13-28.82 2.7-5.38 5.18-11.16 5.48-17.44-1.2 7.97-10.37 20.24-15.26 26.21-11.55 14.26-23.93 27.92-35.48 42.07-22.63 27.2-45.16 54.43-66.8 82.46-2.3 2.9-4.48 5.87-6.77 8.96-10.87-8.97-22.54-17.83-29.92-30.12-1.7-2.6-2.99-5.48-3.88-8.47-1.4-4.38-1.6-9.37-.4-13.75 3.48-12.16 11.95-22.13 20.04-31.5 9.58-11.16 20.14-21.63 30.92-31.7 10.37-9.68 20.94-19.16 32.4-27.42 10.87-7.78 22.34-14.66 35.09-18.84 1.7-.5 3.39-.9 5.28-1.4-7.68 4.3-14.86 9.28-21.53 15.06-7.68 6.57-14.76 13.85-21.24 21.54-4.99 6.17-9.47 12.65-13.06 19.63-1.4 2.8-2.7 5.68-3.59 8.67-.8 2.8-1.3 5.78-.9 8.67.1 1.3.5 2.5 1.2 3.6.9 1.3 2.4 1.99 3.9 2.19 2.88.4 5.77-.4 8.46-1.3 7.48-2.79 14.16-7.27 21.24-10.96 28.43-15.06 56.97-30.12 85.4-45.18 1.9-.9 3.7-1.8 5.6-2.7-3.4 4.7-6.58 9.48-9.78 14.26-11.35 17.14-22.93 34.27-34.48 51.33-13.76 20.52-27.62 41.14-41.38 61.92zm42.59-88.34c-3.39 6.77-6.97 13.35-10.36 20.13-15.26-12.56-33.4-21.64-52.23-25.23-5.88-1.1-11.85-1.7-17.83-2.2-5.48-.3-11.06-.5-16.35-2-2.4-.7-5.48-2.1-5.38-5.08 0-1.3.6-2.39 1.5-3.29 2.3-2.3 5.58-3.3 8.67-4.09 6.67-1.6 13.75-1.4 20.53-.7 15.46 1.6 30.22 8.36 43.07 17.43 9.58 6.67 18.54 14.86 28.03 22.14-2-5.48-4.1-10.96-6.28-16.34 7.68-3.98 15.05-8.07 22.63-12.16-5.08 3.79-10.56 7.19-15.36 11.26-.1.1-.2.1-.2.2.1-.1 0-.1.06-.07zm27.32 17.33c-7.18 6.57-12.55 15.45-16.35 24.32-8.86-7.18-17.93-14.15-26.9-21.03 11.35-17.44 22.73-34.88 34.08-52.22 4.08-6.18 8.07-12.26 12.06-18.44 5.27-8.06 11.05-16.35 13.15-26.12-3 18.84-16.36 33.8-26.72 47.95-9.37 12.95-18.34 26.3-27.5 39.35l-.5.8c-.8 1.3-1.7 2.6-2.5 3.9 13.95 10.65 27.82 21.42 41.18 32.68zm-99.86-93.52c3.09-1.3 6.38-2.3 9.67-2.9 6.87-1.2 14.16-1.3 21.13-.1 7.78 1.3 14.96 4.28 22.34 7.37-2 .9-4.09 1.9-6.08 2.9-7.38 3.58-14.56 7.57-21.53 11.85-9.58 5.87-18.84 12.05-28.03 18.34-11.65 8.16-22.93 16.94-33.9 26.11-11.36 9.47-22.43 19.05-33.8 28.52-1.5 1.3-3.28 2.5-5.08 3.29 12.45-16.94 24.92-33.8 37.38-50.65 5.58-7.68 11.15-15.36 16.64-23.23 6.97-9.88 13.56-20.03 21.24-29.5zm131.28 62.71c-12.26 6.88-24.32 14.06-35.97 21.93-5.87 3.98-11.65 8.17-17.24 12.56-5.28 4.19-10.36 8.57-14.85 13.65-2.7 2.9-5.18 6.08-7.48 9.38-2.1 3.09-3.89 5.77-3.89 10.76-11.45-9.27-22.74-18.74-34.18-28.01 15.84-8.37 31.8-16.55 47.64-24.82 18.33-9.58 36.77-19.05 55.11-28.63 13.25-6.87 26.6-13.55 39.95-20.03 9.28-4.59 18.54-9.08 28.33-12.36 10.37-3.49 21.43-5.48 32.19-3.29 2.1.5 4.29 1.3 6.18 2.3 1.9 1 3.58 2.3 4.98 4.09 2 2.5 2.7 5.88 2.6 9.07-.3 12.95-8.17 23.92-13.95 34.88-6.28 12.06-12.55 24.02-19.23 36.08-3.48 6.28-7.38 12.55-10.87 18.84-1.5 2.69-2.99 5.28-4.38 8.07-1.2 2.3-2.3 4.58-2.9 7.08-.6 2.2-.6 4.38.5 6.57 1.1 2.4 3.49 3.99 5.98 4.69 2.6.6 5.28.2 7.78-.7 4.98-1.7 9.58-4.49 14.15-7.08 3.39-1.9 6.68-3.79 9.97-5.87 4.1-2.6 8.17-5.18 12.07-8.07-6.28 8.77-15.26 15.35-25.33 19.14-5.68 2.1-11.65 3.2-17.73 2.8-10.27-.7-18.44-6.78-22.53-15.75-2.1-4.48-3-9.47-2.9-14.36.1-5.38 1.4-10.56 3.3-15.55 2.09-5.78 4.78-11.36 7.37-16.85 5.18-10.77 10.36-21.54 15.65-32.2 4.89-9.78 9.88-19.35 13.56-29.52 1.8-4.99 3.19-10.27 3.09-15.65 0-2.8-.6-5.58-2-7.88-.8-1.3-1.9-2.4-3.29-3.1-1.2-.6-2.6-.8-3.9-.7-3.48.3-6.88 1.7-9.97 3.3-6.38 3.28-12.16 7.48-18.24 11.35-12.55 7.98-25.23 15.56-37.77 23.43zm98.85 69.29c-9.38 33.3-18.74 66.51-28.13 99.82-1.7 5.97-3.29 11.95-5.08 17.83-1.4 4.88-2.9 9.87-4.98 14.56-1.7 4.08-3.9 7.97-6.98 11.05-1.9 1.8-4.29 3.4-6.87 3.5-1.1.1-2.3-.1-3.3-.7-1.5-.9-2.3-2.4-2.6-4.1-.7-3.58.4-7.27 1.6-10.56 2.4-6.48 5.48-12.75 8.47-19.04 10.16-20.73 20.33-41.47 30.5-62.2 9.78-19.76 19.65-39.47 30.13-58.82-.7 2.6-1.3 5.27-1.8 7.77-3.69 13.36-7.38 26.62-10.96 39.87z"/>
</svg>
